<?xml version="1.0" standalone="no"?>
<!DOCTYPE svg PUBLIC "-//W3C//DTD SVG 20010904//EN"
 "http://www.w3.org/TR/2001/REC-SVG-20010904/DTD/svg10.dtd">
<svg version="1.0" xmlns="http://www.w3.org/2000/svg"
 width="1024.000000pt" height="1024.000000pt" viewBox="0 0 1024.000000 1024.000000"
 preserveAspectRatio="xMidYMid meet">
<metadata>
Created by potrace 1.11, written by Peter Selinger 2001-2013
</metadata>
<g transform="translate(0.000000,1024.000000) scale(0.100000,-0.100000)"
fill="#000000" stroke="none">
<path d="M2525 7386 c-123 -30 -218 -118 -259 -239 -14 -43 -16 -242 -21
-1945 -3 -1315 -1 -1915 6 -1957 14 -78 62 -167 115 -214 47 -41 142 -95 189
-108 45 -12 5057 -14 5129 -2 122 20 248 114 303 226 l28 58 0 1795 0 1795
-21 46 c-28 60 -93 125 -153 153 l-46 21 -1775 5 -1775 5 -44 24 c-24 12 -98
78 -163 146 -128 132 -190 174 -286 194 -78 16 -1160 14 -1227 -3z m5154 -726
c38 -11 86 -51 106 -90 7 -14 16 -47 20 -73 l7 -47 -2671 0 -2671 0 0 39 c0
76 35 130 105 162 39 18 131 19 2555 19 1614 0 2527 -4 2549 -10z"/>
</g>
</svg>
