<?xml version="1.0"?>
<svg xmlns="http://www.w3.org/2000/svg" id="Layer" enable-background="new 0 0 512 512" height="512px" viewBox="0 0 512 512" width="512px"><g><path d="m458 96h-202v-26c0-29.775-24.224-54-54-54h-148c-29.776 0-54 24.225-54 54v50 322c0 29.775 24.224 54 54 54h404c29.776 0 54-24.225 54-54v-292c0-29.775-24.224-54-54-54zm-250 0h-160v-26c0-3.309 2.691-6 6-6h148c3.309 0 6 2.691 6 6zm248 320h-24v24c0 13.255-10.745 24-24 24s-24-10.745-24-24v-24h-24c-13.255 0-24-10.745-24-24s10.745-24 24-24h24v-24c0-13.255 10.745-24 24-24s24 10.745 24 24v24h24c13.255 0 24 10.745 24 24s-10.745 24-24 24z" data-original="#000000" class="active-path" data-old_color="#000000" fill="#192A56"/></g> </svg>
