<?xml version="1.0"?>
<svg xmlns="http://www.w3.org/2000/svg" id="Flat" height="512px" viewBox="0 0 512 512" width="512px" class=""><g><rect fill="#f7cc38" height="368" rx="32" width="400" x="88" y="112" data-original="#F7CC38" class="active-path" style="fill:#5F7D95" data-old_color="#f7cc38"/><path d="m456 480h-400a32 32 0 0 1 -32-32v-368a32 32 0 0 1 32-32h112a32 32 0 0 1 32 32v96h192a32 32 0 0 1 32 32v240a32 32 0 0 0 32 32z" fill="#fbe36a" data-original="#FBE36A" class="" style="fill:#192A56" data-old_color="#fbe36a"/><path d="m440 32c-104.4 0-192 87.148-192 192h-48l80 80 88-80h-56c0-104.852 79.881-192 128-192z" fill="#f79539" data-original="#F79539" class="" style="fill:#E3E9ED" data-old_color="#f79539"/></g> </svg>
