<?xml version="1.0"?>
<svg xmlns="http://www.w3.org/2000/svg" xmlns:xlink="http://www.w3.org/1999/xlink" version="1.1" id="Capa_1" x="0px" y="0px" viewBox="0 0 512 512" style="enable-background:new 0 0 512 512;" xml:space="preserve" width="512px" height="512px"><g><g>
	<g>
		<path d="M257,0C116.39,0,0,114.39,0,255s116.39,257,257,257s255-116.39,255-257S397.61,0,257,0z M348.921,268.078L212.568,404.432    c-6.565,6.565-17.208,6.565-23.773,0l-18.649-18.649c-6.565-6.565-6.565-17.208,0-23.773l93.902-93.902    c7.221-7.221,7.172-18.945-0.111-26.104l-93.589-92.015c-6.66-6.548-6.705-17.269-0.101-23.873l18.622-18.622    c6.536-6.536,17.122-6.569,23.698-0.074L348.84,242.003C356.095,249.168,356.131,260.868,348.921,268.078z" data-original="#000000" class="active-path" data-old_color="#000000" fill="#DCDDE1"/>
	</g>
</g></g> </svg>
