<?xml version="1.0"?>
<svg xmlns="http://www.w3.org/2000/svg" enable-background="new 0 0 140 140" height="512px" viewBox="0 0 140 140" width="512px" class=""><g><circle cx="69.999" cy="69.999" fill="#344d5b" r="64" data-original="#344D5B" class="active-path" style="fill:#192A56" data-old_color="#344d5b"/><path d="m133.9611053 68.6307831c.0100098.4599609.039978.9099121.039978 1.369873 0 35.3400879-28.6599731 64-64 64-.4599609 0-.8999634-.0300293-1.3599854-.0400391l-33.960022-33.9599609c-1.4699707-1.1398926-2.4199829-2.920166-2.4199829-4.9299316v-50.1501465c0-3.4399414 2.789978-6.2299805 6.2299805-6.2299805h63.0200195c1.4500122 0 2.789978.5 3.8499756 1.3400879.3900146.2998047.7400513.6499023 1.0400391 1.0400391z" opacity=".1" data-original="#000000" class=""/><path d="m101.5063019 38.6900177h-63.0147705c-3.4432373 0-6.2345581 2.7912598-6.2345581 6.2344971v50.1495361c0 3.4432373 2.7913208 6.2346191 6.2345581 6.2346191h63.0147705c3.4432373 0 6.2345581-2.7913818 6.2345581-6.2346191v-50.1495361c0-3.4432373-2.7913208-6.2344971-6.2345581-6.2344971z" fill="#ededed" data-original="#EDEDED" class=""/><path d="m36.844971 43.750286h66.307884v45.869675h-66.307884z" fill="#4da0dc" data-original="#4DA0DC"/><path d="m75.1656418 89.6169586h-32.481472l16.0920143-31.1007156.1487198-.286808z" fill="#344d5b" data-original="#344D5B" class="active-path" style="fill:#192A56" data-old_color="#344d5b"/><path d="m93.0892639 89.6199646-12.5468597-24.2489548-12.5468598 24.2489548z" fill="#344d5b" data-original="#344D5B" class="active-path" style="fill:#192A56" data-old_color="#344d5b"/><path d="m63.2267265 89.6169586h-20.5425567l16.0920143-31.1007156c1.0907707 2.1145592 1.3808212 8.1681137 1.0090866 9.3791504-.3611717 1.1895065-.4991951 2.3686447-.8603668 3.5687866-.6267166 2.0713272-1.2002716 4.6737518-.0743599 6.7662201.9240913 1.6994629 2.5917244 3.7282715 3.2821693 5.799469.5204582 1.5720062 1.1046486 3.6538467 1.0940132 5.5870895z" fill="#304551" data-original="#304551"/><path d="m81.5430756 80.5152817c.3109894-.5419769.4437637-1.1682434.3795166-1.7898331l-1.3801727-13.3545532-12.546898 24.2490463h10.9471436l.849144-.6004639c1.261734-.8923264 1.6323013-2.6008682.8536224-3.9357224-.5375061-.9215012-.5415955-2.060051-.0106964-2.9853134z" fill="#304551" data-original="#304551"/><circle cx="70.883" cy="55.96" fill="#feda6f" r="5.012" data-original="#FEDA6F" class=""/></g> </svg>
