<?xml version="1.0" encoding="utf-8"?>
<!-- Generator: Adobe Illustrator 19.0.0, SVG Export Plug-In . SVG Version: 6.00 Build 0)  -->
<svg xmlns="http://www.w3.org/2000/svg" xmlns:xlink="http://www.w3.org/1999/xlink" version="1.1" id="Layer_1" x="0px" y="0px" viewBox="0 2 98 98" style="enable-background:new 0 2 98 98;" xml:space="preserve" width="512" height="512">
<style type="text/css">
	.st0{fill:url(#SVGID_1_);}
	.st1{fill:url(#SVGID_2_);}
</style>
<g>
	<linearGradient id="SVGID_1_" gradientUnits="userSpaceOnUse" x1="26.1513" y1="7.25" x2="26.1513" y2="94.509">
		<stop offset="0" style="stop-color:#00EFD1"/>
		<stop offset="1" style="stop-color:#00ACEA"/>
	</linearGradient>
	<path class="st0" d="M26.6,28.8c-4.3,4.3-6.5,10.4-5.9,16.6c0.2,1.5,1.5,2.7,3,2.7c0.1,0,0.2,0,0.3,0c1.6-0.2,2.9-1.6,2.7-3.3   c-0.4-4.4,1.1-8.7,4.1-11.8c1.2-1.2,1.2-3.1,0-4.2C29.6,27.8,27.8,27.7,26.6,28.8z"/>
	<linearGradient id="SVGID_2_" gradientUnits="userSpaceOnUse" x1="49" y1="7.25" x2="49" y2="94.509">
		<stop offset="0" style="stop-color:#00EFD1"/>
		<stop offset="1" style="stop-color:#00ACEA"/>
	</linearGradient>
	<path class="st1" d="M88.7,86.5L69,66.7c5-6,8-13.6,8-22c0-18.9-15.4-34.3-34.3-34.3c-18.9,0-34.3,15.4-34.3,34.3   C8.4,63.5,23.8,79,42.7,79c8.4,0,16.1-3,22-8l19.8,19.8c0.6,0.6,1.4,0.9,2.1,0.9c0.7,0,1.5-0.3,2.1-0.9   C89.9,89.5,89.9,87.5,88.7,86.5z M62.9,64.5c-0.1,0.1-0.1,0.1-0.2,0.2c-0.1,0.1-0.1,0.1-0.2,0.2c-5.1,5-12.1,8.1-19.8,8.1   c-15.6,0-28.3-12.7-28.3-28.3c0-15.6,12.7-28.3,28.3-28.3C58.3,16.3,71,29,71,44.7C71,52.3,67.9,59.3,62.9,64.5z"/>
</g>
</svg>
