<?xml version="1.0"?>
<svg xmlns="http://www.w3.org/2000/svg" height="512px" viewBox="0 0 512 512" width="512px"><g><path d="m512 150.636719v-150.636719h-512v150.636719h30.023438v30.046875h-30.023438v150.632812h30.023438v30.050782h-30.023438v150.632812h512v-150.636719h-30.023438v-30.046875h30.023438v-150.632812h-30.023438v-30.046875zm-482-120.636719h452v90.636719h-452zm452 452h-452v-90.636719h452zm-30.023438-120.636719h-391.953124v-30.046875h391.953124zm30.023438-60.046875h-452v-90.632812h452zm-30.023438-120.632812h-391.953124v-30.046875h391.953124zm0 0" data-original="#000000" class="active-path" data-old_color="#000000" fill="#192A56"/><path d="m321.964844 60.316406h130v30h-130zm0 0" data-original="#000000" class="active-path" data-old_color="#000000" fill="#192A56"/><path d="m321.964844 241h130v30h-130zm0 0" data-original="#000000" class="active-path" data-old_color="#000000" fill="#192A56"/><path d="m321.964844 421.683594h130v30h-130zm0 0" data-original="#000000" class="active-path" data-old_color="#000000" fill="#192A56"/><path d="m60.035156 60.316406h30.023438v30h-30.023438zm0 0" data-original="#000000" class="active-path" data-old_color="#000000" fill="#192A56"/><path d="m120.085938 60.316406h30.023437v30h-30.023437zm0 0" data-original="#000000" class="active-path" data-old_color="#000000" fill="#192A56"/><path d="m60.035156 241h30.023438v30h-30.023438zm0 0" data-original="#000000" class="active-path" data-old_color="#000000" fill="#192A56"/><path d="m120.085938 241h30.023437v30h-30.023437zm0 0" data-original="#000000" class="active-path" data-old_color="#000000" fill="#192A56"/><path d="m60.035156 421.683594h30.023438v30h-30.023438zm0 0" data-original="#000000" class="active-path" data-old_color="#000000" fill="#192A56"/><path d="m120.085938 421.683594h30.023437v30h-30.023437zm0 0" data-original="#000000" class="active-path" data-old_color="#000000" fill="#192A56"/></g> </svg>
